<svg xmlns="http://www.w3.org/2000/svg" viewBox="0 0 24 16" width="24" height="16">
  
  <rect width="24" height="16" fill="#FFFFFF"></rect>
  
  <circle cx="12" cy="8" r="4.2" fill="#E11D2E"></circle>
  <path d="M 12 3.8 A 4.2 4.2 0 0 1 12 12.2 A 2.1 2.1 0 0 0 12 8 A 2.1 2.1 0 0 1 12 3.8 Z" fill="#003478"></path>
  
  <g fill="#0B0B0E">
    
    <rect x="2" y="2" width="4" height="0.6"></rect>
    <rect x="2" y="3.2" width="4" height="0.6"></rect>
    <rect x="2" y="4.4" width="4" height="0.6"></rect>
    
    <rect x="18" y="2" width="4" height="0.6"></rect>
    <rect x="18" y="3.2" width="1.6" height="0.6"></rect>
    <rect x="20.4" y="3.2" width="1.6" height="0.6"></rect>
    <rect x="18" y="4.4" width="4" height="0.6"></rect>
    
    <rect x="2" y="11" width="1.6" height="0.6"></rect>
    <rect x="4.4" y="11" width="1.6" height="0.6"></rect>
    <rect x="2" y="12.2" width="4" height="0.6"></rect>
    <rect x="2" y="13.4" width="1.6" height="0.6"></rect>
    <rect x="4.4" y="13.4" width="1.6" height="0.6"></rect>
    
    <rect x="18" y="11" width="1.6" height="0.6"></rect>
    <rect x="20.4" y="11" width="1.6" height="0.6"></rect>
    <rect x="18" y="12.2" width="1.6" height="0.6"></rect>
    <rect x="20.4" y="12.2" width="1.6" height="0.6"></rect>
    <rect x="18" y="13.4" width="1.6" height="0.6"></rect>
    <rect x="20.4" y="13.4" width="1.6" height="0.6"></rect>
  </g>
</svg>